<?xml version="1.0" encoding="UTF-8"?>
<!DOCTYPE svg PUBLIC "-//W3C//DTD SVG 1.1//EN" "http://www.w3.org/Graphics/SVG/1.1/DTD/svg11.dtd">
<!-- Creator: CorelDRAW X7 -->
<svg xmlns="http://www.w3.org/2000/svg" xml:space="preserve" width="143.933mm" height="50.7998mm" version="1.1" style="shape-rendering:geometricPrecision; text-rendering:geometricPrecision; image-rendering:optimizeQuality; fill-rule:evenodd; clip-rule:evenodd"
viewBox="0 0 1439 508"
 xmlns:xlink="http://www.w3.org/1999/xlink">
 <defs>
  <style type="text/css">
   <![CDATA[
    .str0 {stroke:#CD2527;stroke-width:5}
    .str1 {stroke:#CC2627;stroke-width:5}
    .fil23 {fill:none}
    .fil11 {fill:#FEFEFE}
    .fil21 {fill:#FDF5F6}
    .fil12 {fill:#E03E4D}
    .fil6 {fill:#CD2527}
    .fil0 {fill:#CC2627}
    .fil17 {fill:#C62B2B}
    .fil16 {fill:#C32728}
    .fil10 {fill:#B92829}
    .fil2 {fill:#B62829}
    .fil7 {fill:#A42B26}
    .fil5 {fill:#A42A26}
    .fil8 {fill:#A62828}
    .fil18 {fill:#A42827}
    .fil20 {fill:#A42826}
    .fil4 {fill:#9F2826}
    .fil9 {fill:#8D2A24}
    .fil1 {fill:#8A2724}
    .fil19 {fill:#7C2C22}
    .fil3 {fill:#782E23}
    .fil14 {fill:#752D23}
    .fil15 {fill:#742B24}
    .fil13 {fill:#61372F}
    .fil25 {fill:#FEFEFE;fill-rule:nonzero}
    .fil22 {fill:#CD2527;fill-rule:nonzero}
    .fil24 {fill:#CC2627;fill-rule:nonzero}
   ]]>
  </style>
 </defs>
 <g id="Layer_x0020_1">
  <metadata id="CorelCorpID_0Corel-Layer"/>
  <path class="fil0" d="M146 225c-5,-4 -9,-32 -9,-40l0 -12c0,-14 5,-31 12,-40 3,-5 7,-9 12,-13 5,-3 10,-5 18,-6 -1,1 -8,6 -9,8 -9,8 -15,25 -18,37 -5,20 -7,44 -6,66zm134 -6l0 -45c-2,-1 -4,-1 -6,-2 -3,-2 -2,-3 -2,-7 -1,-1 -4,-1 -4,-2 -1,-1 -2,-2 -2,-3 1,-3 1,1 2,-2 -2,0 -5,0 -6,-2 0,-3 2,-3 1,-6 -1,-2 -3,-1 -4,-3 -2,-7 6,-10 4,-16 0,-3 -2,-5 -2,-9 0,-3 0,-7 0,-10 3,-10 11,-21 19,-25l0 -43c-9,0 -15,-1 -25,0 -7,1 -9,1 -17,3 -2,0 -5,0 -7,1 -2,0 -2,1 -4,1 -7,1 -4,0 -12,2l-16 6c-1,0 -2,0 -4,1l-6 2c-5,2 -2,2 -8,4l-2 1c-1,1 1,0 0,1 -1,1 -7,3 -11,6 -1,1 -2,0 -3,1l-5 4c-2,1 -10,5 -13,8 0,0 0,1 -1,1 -3,2 -11,8 -12,10 -2,3 0,1 -2,3 -1,1 -2,1 -3,2 -1,1 -3,3 -5,4l-6 7c-2,2 0,4 -6,7 -2,2 -3,3 -5,5l-3 5c-3,4 0,1 -4,6 -1,0 -4,4 -4,5 -1,2 -3,3 -2,5 0,1 -2,2 -3,3 -1,1 -1,2 -1,4 -2,3 -11,17 -12,21 0,1 -1,3 -1,4 -1,5 -1,2 -3,8 0,1 0,1 -1,2 -1,1 0,0 0,2l-1 4c-2,5 -2,5 -3,8 -1,1 -1,3 -1,5 0,3 -2,5 -2,8 -1,2 -1,3 -1,5 0,3 -1,2 -1,4 -1,1 0,3 0,5 -1,4 -3,11 -2,15 1,3 -2,15 -1,20 1,2 0,5 1,9 2,6 1,4 2,9l46 0c-3,-26 -4,-35 -9,-60 -3,-14 -9,-31 -8,-45 0,-4 2,-11 3,-15 3,-18 17,-34 28,-41 12,-7 26,-12 40,-12 1,0 14,0 16,1 0,0 0,0 0,0 -1,0 -8,1 -13,2 -18,6 -35,17 -44,34 -15,28 -4,53 0,79 3,19 5,37 5,57l37 0c2,-7 4,-15 7,-22 8,-24 13,-36 18,-65 2,-15 1,-38 -2,-51 -2,-6 -12,-30 1,-31 5,-1 7,2 9,5 12,2 17,-1 27,12 2,2 5,6 7,6 2,-1 4,-3 5,-3 0,2 -1,4 0,6 4,1 11,1 15,3 6,2 -1,10 1,14 2,2 9,-2 9,5 0,2 -1,2 -2,4 1,1 4,1 4,2 1,4 -1,3 -1,6 28,13 -6,21 -11,34 -1,3 -1,7 0,10 0,5 0,7 0,11 6,1 11,1 16,-1 4,-2 9,-6 12,-7z"/>
  <path class="fil0" d="M36 281l11 0c-2,-27 -6,-28 -2,-57l3 -18c2,-4 5,-1 8,-3 1,-1 3,-5 3,-7 2,-5 3,-12 5,-17 2,-5 2,-9 5,-16 2,-5 4,-10 6,-15 3,-5 9,-19 13,-24l18 -25c4,-3 12,-12 16,-15l12 -10c1,-1 2,-1 3,-2 2,-1 4,-3 6,-4 2,-1 12,-8 14,-8l21 -10c5,-2 19,-8 23,-9 3,-1 4,-2 6,-2 6,-2 13,-4 19,-5 7,-1 23,-3 29,-2 -1,-2 1,0 -1,-1 0,-1 1,0 0,0 0,0 -2,-1 -2,-1l-10 0c-5,0 -9,0 -14,1 -25,3 -45,8 -68,19 -13,6 -26,13 -37,21 -13,9 -32,25 -42,37 -1,2 -2,3 -3,4 -4,5 -9,11 -12,17 -12,16 -12,18 -21,37 -9,18 -16,48 -17,69 -1,5 -2,24 -1,28 1,0 2,0 3,0 1,2 1,2 2,4 0,1 1,3 1,5 1,2 2,6 3,9z"/>
  <path class="fil1" d="M148 68l2 0c-1,2 -3,3 -4,4 -5,4 -11,9 -16,12 -1,1 -1,2 -2,2 -4,3 -9,9 -12,12 -5,5 -19,21 -22,26l-7 10c-1,-1 0,0 0,-1 -2,3 -6,10 -7,14 0,1 -1,3 -2,4l-5 14c-3,7 -5,12 -7,20l-4 15c-1,2 -1,3 -2,5 -1,2 -3,1 -4,3 3,-1 1,-1 2,0 0,2 -1,2 -1,4 -1,1 0,2 -1,4 -1,4 0,5 -1,9 0,3 0,1 0,8 0,3 0,6 0,9l1 -1 1 -6c2,-6 1,-7 2,-10 0,-1 1,-6 1,-7 0,-4 1,-3 1,-5l4 -18c1,-2 1,-4 2,-6l2 -5c0,-1 0,-1 1,-1 0,-2 0,-2 1,-4 2,-3 0,-3 3,-9 1,-1 1,-1 2,-3 1,-2 1,-3 2,-4 0,-1 0,-1 1,-2l3 -5c0,-2 0,-3 1,-4 1,-1 2,-2 2,-4 3,-4 5,-7 7,-11l9 -12c1,-2 0,-1 2,-3l8 -10c1,-1 1,-1 2,-3 3,-2 2,-1 6,-5 1,-1 1,-2 3,-3l14 -13 28 -20c1,0 1,0 2,-1 1,0 2,-1 3,-1 2,-1 2,-2 4,-2l5 -3c0,0 0,0 1,0 0,-1 1,-1 2,-1 1,0 2,-1 3,-2 4,-2 8,-3 12,-5 3,-1 6,-1 9,-2l7 -3c4,-1 15,-4 19,-5 2,0 3,0 5,0 2,-1 2,-1 5,-1 2,0 3,0 5,0 3,0 2,-1 4,-1 5,-1 25,-1 30,-1l0 -4c-9,0 -18,-2 -28,-1 -3,1 -6,1 -9,1 -1,-1 -1,0 0,-1 -2,-1 -21,3 -23,3 -2,1 -2,1 -3,1 -2,0 -1,0 -3,1l-12 4c-3,0 0,-1 -2,1 -2,0 -1,0 -2,0l-5 2c-3,1 -5,1 -7,2 -4,2 -4,2 -7,3 -3,1 -6,3 -8,4 0,0 0,0 -1,0l-2 1c-1,1 -1,1 -2,1 -2,2 -4,2 -6,3 -2,2 -11,6 -12,7z"/>
  <path class="fil2" d="M56 241l-1 1c2,0 1,0 2,0 1,0 1,0 1,1 -1,2 -1,0 -1,2l-1 9c1,2 1,3 1,6 0,2 0,3 0,6 1,5 0,2 2,10 0,2 1,3 1,5l4 0c-1,-5 0,-3 -2,-9 -1,-4 0,-7 -1,-9 -1,-5 2,-17 1,-20 -1,-4 1,-11 2,-15 0,-2 -1,-4 0,-5 0,-2 1,-1 1,-4 0,-2 0,-3 1,-5 0,-3 2,-5 2,-8 0,-2 0,-4 1,-5 1,-3 1,-3 3,-8l1 -4c0,-2 -1,-1 0,-2 1,-1 1,-1 1,-2 2,-6 2,-3 3,-8 0,-1 1,-3 1,-4 1,-4 10,-18 12,-21 0,-2 0,-3 1,-4 1,-1 3,-2 3,-3 -1,-2 1,-3 2,-5 0,-1 3,-5 4,-5 4,-5 1,-2 4,-6l3 -5c2,-2 3,-3 5,-5 6,-3 4,-5 6,-7l6 -7c2,-1 4,-3 5,-4 1,-1 2,-1 3,-2 2,-2 0,0 2,-3 1,-2 9,-8 12,-10 1,0 1,-1 1,-1 3,-3 11,-7 13,-8l5 -4c1,-1 2,0 3,-1 4,-3 10,-5 11,-6 1,-1 -1,0 0,-1l2 -1c6,-2 3,-2 8,-4l6 -2c2,-1 3,-1 4,-1l16 -6c8,-2 5,-1 12,-2 2,0 2,-1 4,-1 2,-1 5,-1 7,-1 8,-2 10,-2 17,-3 10,-1 16,0 25,0l0 -1c-4,0 -29,-1 -32,0 -2,0 -3,1 -5,1 -4,0 -7,0 -11,1 -4,1 -8,2 -11,2 -2,1 -2,1 -3,1 -2,0 -1,0 -3,1 -1,0 -4,1 -9,2 -2,1 -3,1 -5,2 -2,1 -3,1 -5,2 -3,0 -10,4 -14,5 -7,3 -6,4 -12,7 -6,3 -11,6 -16,10 -4,2 -3,1 -8,5 -1,1 -2,2 -3,3 -5,3 -11,10 -14,11 -2,2 -17,17 -19,20 -1,1 -2,2 -3,3l-13 19c-2,3 -3,5 -5,8 -1,2 -2,3 -3,5 0,0 0,1 -1,2 0,0 -1,1 -1,2 -1,1 -2,2 -2,3 -1,2 -2,3 -3,5 -1,4 -2,6 -3,9 -1,1 -2,3 -2,4 -1,1 -2,4 -2,5 -1,1 0,1 -1,2 0,1 -1,2 -1,3 -1,3 -1,5 -3,9l-3 11c0,1 0,2 0,2 0,2 0,2 0,3 -1,1 -2,4 -2,5 0,2 0,4 -1,5 -1,4 -1,7 -1,12 -1,1 -2,1 -2,3l-1 4c-1,1 0,0 -1,1z"/>
  <path class="fil3" d="M157 60c0,1 -8,5 -9,6 -6,3 -22,16 -28,20 -5,5 -10,11 -15,16 -8,10 -19,26 -25,38 -3,8 -6,15 -9,22 -5,12 -7,25 -12,36 0,2 -2,4 -2,5 -2,2 -4,1 -7,2 -1,1 -1,2 -1,4 1,0 1,-1 2,-2 1,-2 2,1 5,1 1,-2 3,-1 4,-3 1,-2 1,-3 2,-5l4 -15c2,-8 4,-13 7,-20l5 -14c1,-1 2,-3 2,-4 1,-4 5,-11 7,-14 0,-1 0,-2 1,-3 3,-6 4,-6 8,-12 5,-8 11,-15 18,-21l7 -8 18 -14c1,-1 9,-6 9,-7 1,-1 10,-5 12,-7 2,-1 4,-1 6,-3 1,0 1,0 2,-1l2 -1c1,0 1,0 1,0 2,-1 5,-3 8,-4 3,-1 3,-1 7,-3 2,-1 4,-1 7,-2l5 -2c1,0 0,0 2,0 2,-2 -1,-1 2,-1l12 -4c2,-1 1,-1 3,-1 1,0 1,0 3,-1 2,0 21,-4 23,-3 3,0 4,-1 7,-1 2,-1 5,-1 5,-2 -6,-1 -22,1 -29,2 -6,1 -13,3 -19,5 -2,0 -3,1 -6,2 -4,1 -18,7 -23,9l-21 10z"/>
  <path class="fil4" d="M56 241c1,-1 0,0 1,-1l1 -4c0,-2 1,-2 2,-3 0,-5 0,-8 1,-12 1,-1 1,-3 1,-5 0,-1 1,-4 2,-5 0,-1 0,-1 0,-3 0,0 0,-1 0,-2l3 -11c2,-4 2,-6 3,-9 0,-1 1,-2 1,-3 1,-1 0,-1 1,-2 0,-1 1,-4 2,-5 0,-1 1,-3 2,-4 1,-3 2,-5 3,-9 1,-2 2,-3 3,-5 0,-1 1,-2 2,-3 0,-1 1,-2 1,-2 1,-1 1,-2 1,-2 1,-2 2,-3 3,-5 2,-3 3,-5 5,-8l13 -19c1,-1 2,-2 3,-3 2,-3 17,-18 19,-20 3,-1 9,-8 14,-11 1,-1 2,-2 3,-3 5,-4 4,-3 8,-5 5,-4 10,-7 16,-10 6,-3 5,-4 12,-7 4,-1 11,-5 14,-5 2,-1 3,-1 5,-2 2,-1 3,-1 5,-2 5,-1 8,-2 9,-2 2,-1 1,-1 3,-1 1,0 1,0 3,-1 3,0 7,-1 11,-2 4,-1 7,-1 11,-1 2,0 3,-1 5,-1 3,-1 28,0 32,0l0 -3c-5,0 -25,0 -30,1 -2,0 -1,1 -4,1 -2,0 -3,0 -5,0 -3,0 -3,0 -5,1 -2,0 -3,0 -5,0 -4,1 -15,4 -19,5l-7 3c-3,1 -6,1 -9,2 -4,2 -8,3 -12,5 -1,1 -2,2 -3,2 -1,0 -2,0 -2,1 -1,0 -1,0 -1,0l-5 3c-2,0 -2,1 -4,2 -1,0 -2,1 -3,1 -1,1 -1,1 -2,1l-28 20 -14 13c-2,1 -2,2 -3,3 -4,4 -3,3 -6,5 -1,2 -1,2 -2,3l-8 10c-2,2 -1,1 -2,3l-9 12c-2,4 -4,7 -7,11 0,2 -1,3 -2,4 -1,1 -1,2 -1,4l-3 5c-1,1 -1,1 -1,2 -1,1 -1,2 -2,4 -1,2 -1,2 -2,3 -3,6 -1,6 -3,9 -1,2 -1,2 -1,4 -1,0 -1,0 -1,1l-2 5c-1,2 -1,4 -2,6l-4 18c0,2 -1,1 -1,5 0,1 -1,6 -1,7 -1,3 0,4 -2,10l-1 6z"/>
  <path class="fil5" d="M47 281l2 0 -2 -18c0,-4 -1,-6 -1,-9 0,-4 0,-17 0,-20l2 -9c0,-2 0,-2 0,-4 1,-2 1,-2 2,-4l1 -10c-1,1 -1,2 -2,2 0,-2 0,-3 1,-4 3,-1 5,0 7,-2 0,-1 2,-3 2,-5 5,-11 7,-24 12,-36 3,-7 6,-14 9,-22 6,-12 17,-28 25,-38 5,-5 10,-11 15,-16 6,-4 22,-17 28,-20 1,-1 9,-5 9,-6 -2,0 -12,7 -14,8 -2,1 -4,3 -6,4 -1,1 -2,1 -3,2l-12 10c-4,3 -12,12 -16,15l-18 25c-4,5 -10,19 -13,24 -2,5 -4,10 -6,15 -3,7 -3,11 -5,16 -2,5 -3,12 -5,17 0,2 -2,6 -3,7 -3,2 -6,-1 -8,3l-3 18c-4,29 0,30 2,57z"/>
  <path class="fil0" d="M55 242c1,3 0,3 -1,5 0,1 0,3 -1,4 0,3 0,7 0,10 0,4 0,7 1,11 0,3 1,6 1,9l5 0c0,-2 -1,-3 -1,-5 -2,-8 -1,-5 -2,-10 0,-3 0,-4 0,-6 0,-3 0,-4 -1,-6l1 -9c0,-2 0,0 1,-2 0,-1 0,-1 -1,-1 -1,0 0,0 -2,0z"/>
  <path class="fil6" d="M346 217c-2,1 -3,0 -3,-2 -1,-7 1,-11 3,-17 3,-8 4,-14 5,-23 4,2 4,17 4,23 -1,7 -4,10 -6,15 -1,1 -2,3 -3,4zm-66 -172l0 42c3,-1 5,-3 10,-5 4,-1 8,-2 11,-4 7,-1 21,2 27,4 7,3 13,9 16,15 10,16 5,32 -4,47 -9,15 0,14 4,19 3,4 0,23 -1,28 -2,4 -5,12 -7,16 -2,3 -2,3 -4,3 -1,-6 8,-20 11,-33 1,-5 0,-5 -2,-8 -4,-5 -10,-10 -16,-11 -1,0 -2,0 -3,-1l-2 -1c3,-1 8,-6 10,-9 9,-12 8,-34 2,-44 -4,-7 -13,-13 -24,-14 -7,0 -11,1 -17,3 -5,2 -7,4 -11,7l0 70c5,1 10,0 15,0 2,1 5,1 6,2 3,2 3,0 6,-1 -1,2 -2,4 -3,6 -3,6 -3,11 -3,19 0,4 0,9 0,14 0,8 -2,7 -3,12 2,0 2,0 3,1 -7,1 -3,0 -12,2 -2,0 -7,2 -9,3l0 16c8,-1 13,-3 20,-7 6,-4 9,-7 13,-13 3,-6 6,-11 9,-18 3,-12 2,-19 3,-22l0 -1c2,4 1,23 0,28 -1,9 -7,17 -11,25 -6,11 -22,17 -34,16l0 7 7 6c3,2 5,3 8,5 5,3 9,8 13,12l8 0c-1,-19 -8,-23 -8,-37 1,0 1,1 2,3 6,9 11,25 14,34l30 0c-3,-10 -12,-19 -11,-30 2,-12 14,-30 18,-39l3 -9c0,0 0,-1 0,-1l1 -1c0,0 0,0 0,0 0,19 -5,27 -11,41 -3,8 -5,11 -3,21 3,8 6,12 9,18l31 0c2,-2 12,-8 18,-17 5,-8 6,-19 2,-28 -4,-9 -10,-14 -17,-19 -5,-3 -18,-10 -21,-14 5,0 22,8 26,10 8,4 16,10 20,16 2,4 3,9 5,13 3,9 -5,26 -10,34 -2,2 -3,3 -4,5l30 0 2 -14c0,-1 1,-4 2,-5 0,-2 1,-4 1,-6 3,-13 2,-30 0,-43 -1,-8 -2,-19 -4,-26 -1,-4 -3,-10 -3,-13 0,0 0,0 1,0l0 1c1,0 4,9 4,11l3 9c0,1 0,2 0,3 0,4 0,0 1,7 0,4 2,13 2,21 0,4 1,28 0,30 0,2 0,1 -1,3 0,4 -1,7 -3,9 -2,2 -1,9 -2,13l28 0c-1,-8 0,-17 0,-26 0,-8 -2,-3 -2,-11l-1 -18 -3 -17c0,-2 0,-3 -1,-6 0,-1 -1,-3 -1,-5 -1,-4 -4,-15 -6,-20 0,-1 -1,-3 -1,-5 -2,-3 -5,-11 -6,-14 -1,-2 -7,-14 -9,-17 0,-1 -1,-2 -2,-4l-10 -16c-1,-1 -2,-2 -3,-3 -2,2 -1,1 -2,1 0,-1 -1,-2 -2,-3 -2,-3 -3,-4 -5,-7 -2,-2 -1,0 -4,-4l-4 -4c-2,-1 -2,-2 -3,-3 -2,-1 -1,0 -2,-1 0,-1 -1,-1 -1,-1 -4,-4 -3,-3 -4,-5 -1,0 -2,-1 -2,-1l-13 -9c-2,-2 -4,-3 -6,-5 -1,-1 -2,-1 -4,-2 -4,-3 -1,-3 -10,-6l-11 -6c-1,0 -2,-1 -2,-1 -3,-2 -7,-3 -10,-4 -4,-1 -2,-2 -8,-3 -3,-1 -5,-2 -9,-3 -6,-1 -6,-2 -8,-2 -3,-1 -6,-1 -9,-2 -5,0 -7,-1 -9,-2 -6,-1 -12,0 -18,-1zm27 90c2,-5 14,-8 14,4 0,4 -3,7 -5,9 -1,1 -6,4 -9,2 0,-1 0,-1 1,-1 1,0 2,0 2,-1 7,-2 8,-11 4,-14 -2,-2 -5,0 -7,1z"/>
  <path class="fil0" d="M161 422c2,0 5,2 7,3 2,1 5,1 7,3 8,4 19,7 28,10 11,4 24,4 32,8 5,2 9,4 16,4 6,0 12,-1 18,-2 3,0 5,-1 9,-1 2,0 7,-1 7,2 -1,1 -7,1 -9,1l-8 1c-7,1 -11,2 -19,1 -4,0 -9,-3 -14,-4 -4,-2 -18,-4 -25,-5l-23 -8c-5,-1 -9,-4 -13,-6 -3,-1 -4,-1 -7,-3l-4 -3c-2,-1 -1,0 -2,-1zm134 -142l-98 0c1,29 27,62 28,96 0,8 1,12 -1,19 0,3 -2,17 -3,18 -1,-1 -1,-17 -1,-20 0,-6 -1,-12 -2,-18 -9,-34 -28,-49 -27,-86l2 -9 -16 0 -3 10c-2,11 0,22 4,32 7,16 19,24 20,28 -4,0 -14,-8 -17,-10 -5,-3 -9,-8 -13,-14 -4,-6 -5,-12 -5,-21 0,-17 0,-11 2,-25l-37 0c0,12 1,25 4,37 0,1 0,1 0,2 0,1 0,2 0,3 5,28 10,45 29,65l8 8c4,3 7,5 11,7 2,2 5,3 7,5 -7,0 -28,-12 -34,-17 -3,-2 -5,-3 -7,-5 -7,-6 -12,-14 -17,-22 -13,-25 -15,-51 -19,-83l-46 0c0,8 5,26 8,32l2 3c1,2 0,3 1,6 1,1 2,4 2,5 0,0 0,0 0,0 -1,0 -1,-1 -1,-1 -1,-1 -2,-2 -2,-3l-1 -2c0,0 0,0 0,-1 -2,-2 -2,-5 -4,-8 -1,-1 -1,-1 -1,-3 0,-1 -1,-2 -1,-3l-4 -12c-1,-3 -3,-9 -3,-13l-5 0 1 3c0,4 1,6 2,10 1,1 2,6 2,7l1 7c1,4 3,9 4,13 0,1 1,5 2,6 0,1 0,2 1,3 2,8 0,4 5,12l4 8c2,3 2,3 2,6 -1,4 11,17 12,21l-2 -1 -1 2 -1 -1c-2,-2 -2,-3 -4,-5 -6,-8 -7,-11 -12,-20 -2,-5 -5,-9 -7,-14 -2,-4 -6,-11 -7,-15 -1,1 -1,-1 -1,1 -2,-2 -3,-6 -4,-9 -1,-2 -1,-4 -1,-6 0,-2 1,-3 1,-5 0,-3 -4,-18 -5,-23l-11 0 6 27c0,2 1,3 1,5 1,4 2,7 3,11 1,5 6,14 8,19 2,3 5,8 8,12l3 4c1,1 2,2 3,3 1,2 2,3 2,4 9,12 9,12 18,23 3,3 20,18 25,22 1,1 2,3 4,3 0,-2 -1,-2 -2,-4 -5,-7 -9,-10 -14,-16 -2,-2 -5,-5 -6,-7 4,1 15,13 20,17 1,1 2,3 3,4 2,1 3,2 4,3 2,2 3,2 4,4l15 11 18 12c2,2 0,3 0,3 -3,3 -36,-16 -39,-19 -9,-5 -9,-5 -17,-12 -4,-3 -13,-14 -15,-15 -1,1 0,0 0,1 0,0 0,0 0,1 -5,1 -14,-12 -17,-16l-6 -10c-2,-3 -6,-8 -8,-9 0,4 6,13 9,16l21 23c0,-1 0,0 0,-1l26 23c1,1 1,1 2,2 5,5 8,5 12,10l6 3c3,2 3,2 8,5 9,6 19,11 29,15 4,1 9,4 13,5 11,3 12,2 21,5 3,0 5,0 8,1 4,2 9,2 14,3 2,0 5,2 7,2 13,3 36,3 49,1l9 -1c3,-2 -12,0 -13,0 -7,1 -26,1 -32,0 -3,0 -13,-2 -14,-3l1 0 3 0c0,-2 -1,-1 0,-2 10,-1 20,0 30,-1 8,-1 13,-1 20,-3 1,-1 4,-2 5,-1 1,0 0,0 1,1 0,0 7,-2 9,-2 2,0 2,-1 4,-1 3,0 3,-1 5,-1l0 -9c-7,1 -7,3 -15,3 -2,0 -4,0 -4,-2 1,-1 7,-1 9,-1 3,0 7,-1 10,-2l0 -23c-3,0 -7,1 -10,2 -12,3 -19,4 -32,5 -7,1 -42,3 -47,1 10,-1 31,-1 36,-1 1,0 3,-1 5,-1 2,0 4,0 6,-1l11 -1c3,-1 7,-1 11,-2 3,0 7,-1 10,-2l5 -1c1,0 0,-1 5,-2l0 -10c-2,2 -2,5 -5,6 1,-5 3,-28 3,-32 -1,-4 -2,-7 -2,-10l4 -2 0 -24c-9,-2 -36,-17 -44,-23 -3,-2 -11,-6 -13,-10 20,-4 38,10 54,18 1,1 2,2 3,2l0 -44c-2,-1 -3,-2 -4,-3l-11 -11z"/>
  <path class="fil7" d="M87 400c2,3 6,7 9,9l9 9c6,5 17,15 24,20l11 7c2,2 4,3 6,4 5,3 18,9 24,12 9,3 11,4 19,7 1,0 7,1 8,1 5,0 10,2 15,3 3,1 11,2 15,3 1,0 1,0 3,1l13 1c12,1 22,1 34,0 2,0 12,-1 14,-4l-9 1c-13,2 -36,2 -49,-1 -2,0 -5,-2 -7,-2 -5,-1 -10,-1 -14,-3 -3,-1 -5,-1 -8,-1 -9,-3 -10,-2 -21,-5 -4,-1 -9,-4 -13,-5 -10,-4 -20,-9 -29,-15 -5,-3 -5,-3 -8,-5l-6 -3c-4,-5 -7,-5 -12,-10 -1,-1 -1,-1 -2,-2l-26 -23c0,1 0,0 0,1z"/>
  <path class="fil1" d="M161 422c1,1 0,0 2,1l4 3c3,2 4,2 7,3 4,2 8,5 13,6l23 8c7,1 21,3 25,5 5,1 10,4 14,4 8,1 12,0 19,-1l8 -1c2,0 8,0 9,-1 0,-3 -5,-2 -7,-2 -4,0 -6,1 -9,1 -6,1 -12,2 -18,2 -7,0 -11,-2 -16,-4 -8,-4 -21,-4 -32,-8 -9,-3 -20,-6 -28,-10 -2,-2 -5,-2 -7,-3 -2,-1 -5,-3 -7,-3z"/>
  <path class="fil2" d="M60 280c0,4 2,10 3,13l4 12c0,1 1,2 1,3 0,2 0,2 1,3 2,3 2,6 4,8 0,1 0,1 0,1l1 2c0,1 1,2 2,3 0,0 0,1 1,1 0,0 0,0 0,0 0,-1 -1,-4 -2,-5 -1,-3 0,-4 -1,-6l-2 -3c-3,-6 -8,-24 -8,-32l-4 0z"/>
  <path class="fil8" d="M57 322c-1,-1 -5,-13 -3,-14 1,-1 -1,0 1,1 1,-2 -3,-14 -3,-18 -1,-1 -1,-1 -1,-3 -1,-4 -2,-4 -2,-8l-2 0c1,5 5,20 5,23 0,2 -1,3 -1,5 0,2 0,4 1,6 1,3 2,7 4,9 0,-2 0,0 1,-1z"/>
  <path class="fil0" d="M177 281l16 0c0,-4 2,-12 5,-14 -1,5 -2,9 -1,14l83 0 0 -12 -5 -3c-5,-3 -11,-6 -17,-8 -18,-4 -25,2 -30,2 2,-3 7,-6 11,-8 4,-2 8,-3 15,-3 15,0 20,7 26,10l0 -8c-4,-1 -24,-4 -26,-5 1,0 0,0 1,0 1,0 -1,0 1,0 0,0 1,0 2,0 1,0 2,0 3,0 9,-1 11,-2 19,-3l0 -16c-7,3 -12,9 -23,7 -4,-1 -7,-3 -13,-2 -4,1 -8,4 -11,5 3,-5 8,-7 10,-10 2,-2 2,-3 1,-6 -2,-17 -3,-16 11,-26 2,-2 5,-4 7,-6 7,-7 -1,-12 -6,-15 1,-4 4,-7 -4,-7 0,-3 4,-2 3,-7 -14,-4 -8,-5 -8,-15 -4,-1 -5,-1 -10,-1 -4,0 -8,-1 -9,3l3 1c-1,1 -2,1 -3,1 -1,0 -2,0 -3,1 -2,0 -4,1 -6,1 0,-2 4,-8 4,-10 1,-3 -13,-18 -23,-20l5 20c5,22 5,47 0,68 -3,9 -10,28 -14,37 -2,5 -9,20 -11,26 -1,3 -3,6 -3,9z"/>
  <path class="fil0" d="M280 98c-4,3 -9,9 -11,14 -2,6 -1,15 0,22 2,0 6,-2 7,1 -1,1 -4,2 -5,2l1 -1 -4 -1c-1,3 -3,7 -4,10 1,2 3,4 4,5 0,1 -3,6 2,6 1,0 2,0 3,0 0,2 -2,2 -2,5 2,1 4,1 5,2 2,1 1,3 1,6l3 0 0 -71z"/>
  <path class="fil4" d="M280 43l33 4 3 3c2,0 2,1 8,2 4,1 6,2 9,3 6,1 4,2 8,3 3,1 7,2 10,4 0,0 1,1 2,1l11 6c9,3 6,3 10,6 2,1 3,1 4,2 2,2 4,3 6,5l13 9c0,0 1,1 2,1 1,2 0,1 4,5 0,0 1,0 1,1 1,1 0,0 2,1 1,1 1,2 3,3l4 4c3,4 2,2 4,4 2,3 3,4 5,7 1,1 2,2 2,3 1,0 0,1 2,-1 -5,-7 -13,-16 -19,-22 -4,-4 -7,-7 -11,-10 -3,-3 -14,-12 -17,-14 -2,-2 -4,-3 -6,-4 -3,-2 -2,-1 -7,-4 -2,-1 -4,-3 -6,-4 -8,-5 -19,-11 -29,-14l1 2c2,0 2,1 5,1 0,1 0,2 -4,1 -2,0 -2,0 -3,-2l-12 -3c-4,-1 -8,-2 -12,-2 -4,0 1,0 -6,-1 -3,0 -5,-1 -7,-1 -7,0 -3,-1 -7,-1l-6 -1 0 3z"/>
  <path class="fil6" d="M280 219l7 -2c6,-6 5,-12 5,-22 -1,-17 6,-16 7,-21 -6,-1 -13,0 -19,-1l0 46z"/>
  <path class="fil9" d="M280 40l6 1c4,0 0,1 7,1 2,0 4,1 7,1 7,1 2,1 6,1 4,0 8,1 12,2l12 3c1,2 1,2 3,2 4,1 4,0 4,-1 -3,0 -3,-1 -5,-1l-1 -2c-1,0 -9,-3 -11,-3l-16 -5c-1,0 -2,0 -3,0 -3,-1 -6,-1 -7,-2 -3,0 -5,0 -7,0 -4,-1 -4,-1 -7,-1l0 4z"/>
  <path class="fil6" d="M280 281l15 0c-2,-2 -12,-10 -15,-12l0 12z"/>
  <path class="fil10" d="M280 45c6,1 12,0 18,1 2,1 4,2 9,2 3,1 6,1 9,2l-3 -3 -33 -4 0 2z"/>
  <circle class="fil6" cx="264" cy="247" r="198"/>
  <path class="fil11" d="M146 225c-1,-22 1,-46 6,-66 3,-12 9,-29 18,-37 1,-2 8,-7 9,-8 -8,1 -13,3 -18,6 -5,4 -9,8 -12,13 -7,9 -12,26 -12,40l0 12c0,8 4,36 9,40z"/>
  <path class="fil11" d="M280 169l-3 0c0,-3 1,-5 -1,-6 -1,-1 -3,-1 -5,-2 0,-3 2,-3 2,-5 -1,0 -2,0 -3,0 -5,0 -2,-5 -2,-6 -1,-1 -3,-3 -4,-5 1,-3 3,-7 4,-10l4 1 -1 1c1,0 4,-1 5,-2 -1,-3 -5,-1 -7,-1 -1,-7 -2,-16 0,-22 2,-5 7,-11 11,-14l0 0c4,-2 7,-4 11,-6 6,-2 10,-3 17,-3 11,1 19,7 24,14 6,10 7,32 -2,44 -2,3 -7,8 -10,9l2 1c1,1 2,1 3,1 6,1 12,6 16,11 2,3 3,3 2,8 -3,13 -12,27 -11,33 2,0 2,0 4,-3 2,-4 5,-12 7,-16 1,-5 4,-24 1,-28 -4,-5 -13,-4 -4,-19 9,-15 14,-31 4,-47 0,-1 -2,-3 -3,-5 0,0 -1,-1 -2,-1 0,0 0,-1 0,-1 -4,-3 -5,-5 -11,-8 -15,-6 -24,-4 -38,0 -5,2 -7,4 -10,5l0 1c-8,4 -16,14 -19,24 0,3 0,7 0,10 0,4 2,6 2,9 2,6 -6,9 -4,16 1,2 3,1 4,3 1,3 -1,3 -1,6 1,2 4,2 6,2 -1,3 -1,-1 -2,2 0,1 1,2 2,3 0,1 3,1 4,2 0,4 -1,5 2,7 2,1 4,1 6,2l0 0c6,0 13,-1 19,0 -1,5 -8,4 -7,21 0,10 1,16 -5,22l-7 2 0 0 0 0 0 0 0 0c-4,2 -8,5 -12,7 -5,2 -10,2 -16,1 0,-4 0,-6 0,-11 -1,-3 -1,-7 0,-10 5,-13 39,-21 11,-34 0,-3 2,-2 1,-6 0,-1 -3,-1 -4,-2 1,-2 2,-2 2,-4 0,-7 -7,-3 -9,-5 -2,-4 5,-12 -1,-14 -4,-2 -11,-2 -15,-3 -1,-2 0,-4 0,-6 -1,0 -3,2 -5,3 -2,0 -5,-4 -7,-6 -10,-13 -15,-10 -27,-12 -2,-3 -4,-6 -9,-5 -13,1 -3,25 -1,31 3,13 4,36 2,51 -5,29 -10,41 -18,65 -2,7 -5,15 -6,21l-1 0c-2,16 -6,32 3,46 4,6 8,11 13,14 3,2 13,10 17,10 -1,-4 -13,-12 -20,-28 -4,-10 -6,-21 -4,-32l3 -9 0 0c0,-3 2,-6 3,-9 2,-6 9,-21 11,-26 4,-9 11,-28 14,-37 5,-21 5,-46 0,-68l-5 -20c10,2 24,17 23,20 0,2 -4,8 -4,10 2,0 4,-1 6,-1 1,-1 2,-1 3,-1 1,0 2,0 3,-1l-3 -1c1,-4 5,-3 9,-3 5,0 6,0 10,1 0,10 -6,11 8,15 1,5 -3,4 -3,7 8,0 5,3 4,7 5,3 13,8 6,15 -2,2 -5,4 -7,6 -14,10 -13,9 -11,26 1,3 1,4 -1,6 -2,3 -7,5 -10,10 3,-1 7,-4 11,-5 6,-1 9,1 13,2 11,2 16,-4 23,-7l0 0c3,-1 7,-3 9,-3 9,-2 5,-1 12,-2 -1,-1 -1,-1 -3,-1 1,-5 3,-4 3,-12 0,-5 0,-10 0,-14 0,-8 0,-13 3,-19 1,-2 2,-4 3,-6 -3,1 -3,3 -6,1 -1,-1 -4,-1 -6,-2 -5,0 -10,1 -15,0l0 0zm27 -34c2,-1 5,-3 7,-1 4,3 3,12 -4,14 0,1 -1,1 -2,1 -1,0 -1,0 -1,1 3,2 8,-1 9,-2 2,-2 5,-5 5,-9 0,-12 -12,-9 -14,-4z"/>
  <path class="fil11" d="M280 243c-8,1 -10,2 -19,3 -1,0 -2,0 -3,0 -1,0 -2,0 -2,0 -2,0 0,0 -1,0 -1,0 0,0 -1,0 2,1 20,4 26,5l0 0 0 0 0 0 0 0c13,1 28,-5 34,-16 4,-8 10,-16 11,-25 1,-5 2,-24 0,-28l0 1c-1,3 0,10 -3,22 -3,7 -6,12 -9,18 -4,6 -7,9 -13,13 -7,4 -12,6 -20,7l0 0z"/>
  <path class="fil11" d="M346 217c1,-1 2,-3 3,-4 2,-5 5,-8 6,-15 0,-6 0,-21 -4,-23 -1,9 -2,15 -5,23 -2,6 -4,10 -3,17 0,2 1,3 3,2z"/>
  <path class="fil11" d="M110 280c4,32 6,58 19,83 5,8 10,16 17,22 2,2 4,3 7,5 6,5 27,17 34,17 -2,-2 -5,-3 -7,-5 -4,-2 -7,-4 -11,-7l-8 -8c-25,-26 -33,-71 -33,-106l0 0c0,-20 -2,-38 -5,-57 -4,-26 -15,-51 0,-79 9,-17 26,-28 44,-34 5,-1 12,-2 13,-2 0,0 0,0 0,0 -2,-1 -15,-1 -16,-1 -14,0 -28,5 -40,12 -11,7 -25,23 -28,41 -1,4 -3,11 -3,15 -1,14 5,31 8,45 5,25 6,34 9,59l0 0z"/>
  <path class="fil11" d="M193 280l-2 9c-1,37 18,52 27,86 1,6 2,12 2,18 0,3 0,19 1,20 1,-1 3,-15 3,-18 2,-7 1,-11 1,-19 -1,-33 -27,-66 -28,-95l0 0c-1,-5 0,-9 1,-14 -2,2 -4,9 -5,13l0 0z"/>
  <path class="fil11" d="M254 249c-7,0 -11,1 -15,3 -4,2 -9,5 -11,8 5,0 12,-6 30,-2 6,2 12,5 17,8 9,5 30,22 34,28 2,0 3,3 5,5 8,7 30,30 37,32 -1,-4 -11,-16 -16,-23 -11,-20 -14,-43 -25,-61 -1,-2 -1,-3 -2,-3 0,9 8,32 10,47 -1,-1 -4,-3 -5,-5 -6,-6 -12,-13 -18,-17 -3,-2 -5,-3 -8,-5 -11,-8 -18,-15 -33,-15z"/>
  <path class="fil11" d="M354 281l0 0 4 8c2,3 3,5 4,8 6,13 22,46 16,58 -5,13 -26,5 -37,1 -6,-3 -11,-6 -16,-9l-15 -9 0 0c-1,0 -2,-1 -3,-2 -16,-8 -34,-22 -54,-18 2,4 10,8 13,10 8,5 33,20 43,23l0 0c2,1 5,3 6,4 2,2 2,4 2,8 0,5 -4,10 -8,12l0 0 -3 2c0,3 1,6 2,10 0,4 -2,27 -3,32 3,-1 3,-4 5,-6l0 -1c2,-5 6,-16 6,-20 1,-4 0,-7 1,-11 9,-5 13,-7 15,-19 4,1 13,6 17,7 6,2 14,4 20,4 12,1 13,1 17,-7 3,-6 5,-13 5,-20 -1,-22 -23,-49 -32,-66l0 0c-2,-5 -6,-10 -8,-17 -2,-10 0,-13 3,-21 6,-14 11,-22 11,-41 0,0 0,0 0,0l-1 1c0,0 0,1 0,1l-3 9c-4,9 -16,27 -18,39 -1,11 8,20 11,30z"/>
  <path class="fil11" d="M414 276c10,-14 14,-31 5,-47 -4,-6 -12,-12 -20,-16 -4,-2 -21,-10 -26,-10 3,4 16,11 21,14 7,5 13,10 17,19 4,9 3,20 -2,28 -2,2 -29,26 -29,27l9 13c6,9 12,19 13,30 1,7 -1,12 -1,19 1,-1 1,-2 2,-3 0,-1 1,-2 1,-3 7,-15 7,-27 0,-41 -5,-12 -7,-10 -8,-12 1,-2 0,-1 2,-2 1,0 1,-1 2,-1 1,-1 2,-2 3,-3 4,-4 8,-8 11,-12z"/>
  <path class="fil12" d="M310 426l0 -1c10,-2 18,-3 28,-4 8,-1 18,-5 24,-9l21 -13c6,-4 22,-17 28,-23 1,-2 2,-3 3,-4 5,-6 18,-27 21,-30 4,-5 10,-13 14,-19 1,-2 2,-4 3,-6 1,-2 6,-10 5,-11 -1,0 -1,1 -2,2 0,2 0,2 -1,3 -3,5 -6,11 -10,15l-7 9c-1,2 -2,3 -3,5 -7,9 -11,17 -17,25 -3,4 -11,11 -14,15 -1,1 -1,1 -2,2 -1,1 -1,1 -2,2l-7 6c-8,6 -11,8 -20,14 -3,2 -7,4 -10,6 -6,3 -15,7 -21,8 -1,0 -2,0 -3,1l-11 1c-5,1 -4,0 -11,2l-7 2 0 0c-4,0 -3,1 -4,1l-5 1c-3,1 -7,2 -10,2 -4,1 -8,1 -11,2l-11 1c-2,1 -4,1 -6,1 -2,0 -4,1 -5,1 -5,0 -26,0 -36,1 5,2 40,0 47,-1 13,-1 20,-2 32,-5 3,-1 7,-2 10,-2z"/>
  <path class="fil13" d="M233 470c4,-1 12,0 16,0 7,0 24,0 30,-2 2,0 2,0 4,0 2,-1 7,-2 9,-4 -1,-1 0,-1 -1,-1 -1,-1 -4,0 -5,1 -7,2 -12,2 -20,3 -10,1 -20,0 -30,1 -1,1 0,0 0,2l-3 0z"/>
  <path class="fil14" d="M310 451l0 -2c-3,1 -7,2 -10,2 -2,0 -8,0 -9,1 0,2 2,2 4,2 8,0 8,-2 15,-3z"/>
  <path class="fil6" d="M309 424l7 -2c7,-2 6,-1 11,-2l11 -1c1,-1 2,-1 3,-1 6,-1 15,-5 21,-8 3,-2 7,-4 10,-6 9,-6 12,-8 20,-14l7 -6c1,-1 1,-1 2,-2 1,-1 1,-1 2,-2 3,-4 11,-11 14,-15 6,-8 10,-16 17,-25 1,-2 2,-3 3,-5l7 -9c4,-4 7,-10 10,-15 1,-1 1,-1 1,-3 1,-1 1,-2 2,-2 1,1 -4,9 -5,11 -1,2 -2,4 -3,6 -4,6 -10,14 -14,19 -3,3 -16,24 -21,30 -1,1 -2,2 -3,4 -6,6 -22,19 -28,23l-21 13c-6,4 -16,8 -24,9 -11,1 -19,2 -29,5l0 23c7,-1 22,-8 31,-11 6,-2 11,-2 17,-3 8,-2 17,-5 23,-9 2,-2 4,-3 6,-4 3,-2 10,-8 13,-9 4,-1 4,-1 7,-3 5,-4 21,-24 25,-28 5,-8 12,-17 17,-25 1,-1 1,-2 2,-3 1,-3 8,-15 9,-17l6 -15c5,-11 10,-30 12,-42l-5 0c0,1 0,1 -1,1 -1,0 0,0 -1,-1l-27 0 -2 10c-2,6 -1,8 -4,8 -1,-2 0,-2 0,-4 2,-3 3,-11 3,-14l-30 0c-2,2 -5,6 -7,8 -1,1 -2,2 -3,3 -1,0 -1,1 -2,1 -2,1 -1,0 -2,2 1,2 3,0 8,12 7,14 7,26 0,41 0,1 -1,2 -1,3 -1,1 -1,2 -2,3 0,-7 2,-12 1,-19 -1,-11 -7,-21 -13,-30l-9 -13c0,-2 9,-9 11,-11l-32 0c9,17 31,44 32,66 0,7 -2,14 -5,20 -4,8 -5,8 -17,7 -6,0 -14,-2 -20,-4 -4,-1 -13,-6 -17,-7 -2,12 -6,14 -15,19 -1,4 0,7 -1,11 0,4 -4,18 -7,22l0 10z"/>
  <path class="fil15" d="M309 451c4,0 5,-1 9,-2 7,-2 20,-8 25,-10 11,-3 15,0 29,-6 2,-1 5,-4 8,-4 0,0 0,0 0,-1 1,-1 4,-2 6,-3 1,-1 1,-1 2,-2 1,-1 1,-1 3,-2 1,-1 3,-2 4,-3 2,-1 3,-2 5,-4 2,0 1,1 3,1 2,-1 6,-5 7,-5l1 0c0,-2 12,-14 14,-16l10 -13c3,-5 10,-15 12,-17 0,-2 1,-4 2,-5 4,-5 10,-18 11,-19 4,-2 12,-30 14,-36 1,-2 2,-4 2,-8 0,-1 2,-6 2,-7 1,-2 0,-3 1,-4 1,-2 1,-2 1,-5l-3 0c-2,12 -7,31 -12,42l-6 15c-1,2 -8,14 -9,17 -1,1 -1,2 -2,3 -5,8 -12,17 -17,25 -4,4 -20,24 -25,28 -3,2 -3,2 -7,3 -3,1 -10,7 -13,9 -2,1 -4,2 -6,4 -6,4 -15,7 -23,9 -6,1 -11,1 -17,3 -9,3 -24,10 -31,11l0 2z"/>
  <path class="fil6" d="M309 460c7,0 21,-6 29,-9 3,-1 6,-2 9,-4 7,-3 18,-9 24,-13l8 -4c0,-1 0,-1 1,-1 -3,0 -6,3 -8,4 -14,6 -18,3 -29,6 -5,2 -18,8 -25,10 -4,1 -5,2 -9,2l0 9z"/>
  <path class="fil16" d="M411 410c2,-2 18,-21 21,-24l9 -13c1,-1 2,-2 3,-4l6 -9c2,-3 10,-18 10,-20 -1,1 -7,14 -11,19 -1,1 -2,3 -2,5 -2,2 -9,12 -12,17l-10 13c-2,2 -14,14 -14,16z"/>
  <path class="fil17" d="M380 428c3,-1 11,-6 13,-8l6 -4c3,-2 4,4 11,-6 -1,0 -5,4 -7,5 -2,0 -1,-1 -3,-1 -2,2 -3,3 -5,4 -1,1 -3,2 -4,3 -2,1 -2,1 -3,2 -1,1 -1,1 -2,2 -2,1 -5,2 -6,3z"/>
  <path class="fil0" d="M310 282l0 -2 -2 0c0,1 1,2 2,2z"/>
  <path class="fil6" d="M309 338l16 9c5,3 10,6 16,9 11,4 32,12 37,-1 6,-12 -10,-45 -16,-58 -1,-3 -2,-5 -4,-8l-4 -9 -31 0c2,7 9,22 12,28 5,7 15,19 16,23 -7,-2 -29,-25 -37,-32 -2,-2 -3,-4 -5,-5l0 44z"/>
  <path class="fil6" d="M309 375c4,-2 8,-7 8,-12 0,-4 0,-6 -2,-8 -1,-1 -4,-3 -6,-4l0 24z"/>
  <path class="fil6" d="M309 282l4 4c1,2 4,4 5,5l-2 -11 -7 0 0 2z"/>
  <path class="fil6" d="M472 281l5 0c5,-13 3,-42 4,-43 0,0 0,1 0,1 0,1 0,0 0,1l1 1c0,-15 -5,-36 -9,-50 -1,-2 -4,-13 -5,-15 0,1 1,5 1,7 2,5 3,12 5,17 0,3 0,5 1,7 0,2 0,4 0,7 0,2 1,4 1,6l1 22c1,5 0,9 0,14 -1,14 -1,13 -5,25z"/>
  <path class="fil18" d="M440 281l3 0c1,-4 0,-11 2,-13 2,-2 3,-5 3,-9 1,-2 1,-1 1,-3 1,-2 0,-26 0,-30 0,-8 -2,-17 -2,-21 -1,-7 -1,-3 -1,-7 0,-1 0,-2 0,-3l-3 -9c0,-2 -3,-11 -4,-11l0 -1c-1,0 -1,0 -1,0 0,3 2,9 3,13 2,7 3,18 4,26 2,13 3,30 0,43 0,2 -1,4 -1,6 -1,1 -2,4 -2,5l-2 14z"/>
  <path class="fil19" d="M477 281l3 0c0,-2 1,-3 1,-5 1,-6 2,-32 1,-35l-1 -1c0,-1 0,0 0,-1 0,0 0,-1 0,-1 -1,1 1,30 -4,43z"/>
  <path class="fil20" d="M440 280c0,3 -1,11 -3,14 0,2 -1,2 0,4 3,0 2,-2 4,-8l2 -10 -3 0z"/>
  <path class="fil21" d="M470 280c1,1 0,1 1,1 1,0 1,0 1,-1l-2 0z"/>
  <polygon class="fil22" points="1176,82 1197,82 1197,420 1176,420 "/>
  <polygon id="1" class="fil22" points="1307,82 1327,82 1286,420 1263,420 1218,82 1239,82 1274,359 1275,359 "/>
  <polygon id="2" class="fil22" points="1345,82 1413,82 1413,104 1367,104 1367,227 1410,227 1410,250 1367,250 1367,420 1345,420 "/>
  <line class="fil23 str0" x1="1124" y1="84" x2="1124" y2= "425" />
  <path class="fil0 str1" d="M559 84l493 0c13,0 25,12 25,26l0 199 -543 0 0 -199c0,-14 11,-26 25,-26z"/>
  <rect class="fil23 str1" x="534" y="198" width="543" height="225" rx="11" ry="25"/>
  <path class="fil24" d="M594 328c-15,0 -26,16 -26,39 0,22 10,37 25,37 15,0 27,-13 27,-38 0,-21 -10,-38 -26,-38zm0 8c12,0 18,15 18,30 0,16 -6,30 -18,30 -12,0 -18,-13 -18,-30 0,-16 6,-30 18,-30z"/>
  <polygon id="1" class="fil24" points="629,403 636,403 636,370 657,370 657,362 636,362 636,337 659,337 659,329 629,329 "/>
  <polygon id="2" class="fil24" points="687,329 687,403 695,403 695,329 "/>
  <path id="3" class="fil24" d="M714 403l0 -32c0,-12 0,-21 -1,-30l1 0c3,8 6,16 10,25l18 37 7 0 0 -74 -6 0 0 31c0,12 0,21 0,30l0 1c-2,-8 -6,-16 -10,-25l-18 -37 -8 0 0 74 7 0z"/>
  <path id="4" class="fil24" d="M769 403l0 -32c0,-12 0,-21 -1,-30l1 0c2,8 6,16 10,25l18 37 7 0 0 -74 -7 0 0 31c0,12 1,21 1,30l0 1c-3,-8 -6,-16 -10,-25l-18 -37 -8 0 0 74 7 0z"/>
  <path id="5" class="fil24" d="M840 328c-16,0 -26,16 -26,39 0,22 10,37 25,37 14,0 26,-13 26,-38 0,-21 -9,-38 -25,-38zm-1 8c13,0 18,15 18,30 0,16 -6,30 -18,30 -11,0 -18,-13 -18,-30 0,-16 7,-30 18,-30z"/>
  <path id="6" class="fil24" d="M912 393c-3,2 -7,3 -12,3 -13,0 -21,-11 -21,-30 0,-19 9,-30 22,-30 4,0 8,1 11,3l2 -8c-2,-1 -7,-3 -14,-3 -17,0 -29,16 -29,39 0,24 12,37 28,37 7,0 12,-2 15,-3l-2 -8z"/>
  <polygon id="7" class="fil24" points="952,360 930,360 930,337 953,337 953,329 923,329 923,403 954,403 954,395 930,395 930,368 952,368 "/>
  <path id="8" class="fil24" d="M971 403l0 -32c0,-12 -1,-21 -1,-30l0 0c3,8 7,16 11,25l18 37 7 0 0 -74 -7 0 0 31c0,12 0,21 1,30l0 1c-3,-8 -6,-16 -10,-25l-18 -37 -8 0 0 74 7 0z"/>
  <path id="9" class="fil24" d="M1016 399c3,3 9,5 14,5 13,0 20,-10 20,-21 0,-11 -5,-17 -14,-22 -8,-4 -12,-7 -12,-14 0,-5 3,-11 11,-11 5,0 9,2 11,3l2 -7c-3,-2 -7,-4 -13,-4 -11,0 -18,9 -18,20 0,10 6,17 15,21 7,4 10,8 10,15 0,7 -4,12 -11,12 -5,0 -10,-2 -13,-5l-2 8z"/>
  <path class="fil25" d="M574 272c7,6 20,11 32,11 29,0 43,-22 43,-47 0,-24 -11,-37 -32,-47 -16,-9 -24,-16 -24,-31 0,-11 6,-25 23,-25 11,0 19,5 23,8l5 -17c-6,-4 -15,-8 -27,-8 -24,0 -40,19 -40,44 0,22 12,37 32,46 17,8 24,17 24,32 0,16 -10,27 -26,27 -11,0 -21,-5 -28,-10l-5 17z"/>
  <polygon id="1" class="fil25" points="734,187 686,187 686,136 737,136 737,119 670,119 670,280 739,280 739,263 686,263 686,204 734,204 "/>
  <polygon id="2" class="fil25" points="823,187 775,187 775,136 826,136 826,119 759,119 759,280 829,280 829,263 775,263 775,204 823,204 "/>
  <path id="3" class="fil25" d="M849 280c8,1 17,1 29,1 23,0 42,-8 54,-23 11,-15 17,-36 17,-62 0,-26 -6,-45 -17,-58 -11,-13 -27,-20 -50,-20 -12,0 -23,1 -33,3l0 159zm16 -144c4,-1 10,-2 18,-2 34,0 50,24 50,62 0,44 -19,69 -52,69 -7,0 -12,-1 -16,-2l0 -127z"/>
  <path id="4" class="fil25" d="M964 272c6,6 19,11 31,11 29,0 43,-22 43,-47 0,-24 -11,-37 -31,-47 -17,-9 -25,-16 -25,-31 0,-11 7,-25 23,-25 11,0 20,5 24,8l4 -17c-5,-4 -15,-8 -27,-8 -24,0 -40,19 -40,44 0,22 13,37 32,46 17,8 24,17 24,32 0,16 -10,27 -26,27 -11,0 -21,-5 -28,-10l-4 17z"/>
 </g>
</svg>
