<?xml version="1.0" encoding="UTF-8"?>
<!DOCTYPE svg PUBLIC "-//W3C//DTD SVG 1.1//EN" "http://www.w3.org/Graphics/SVG/1.1/DTD/svg11.dtd">
<!-- Creator: CorelDRAW 2026 -->
<svg xmlns="http://www.w3.org/2000/svg" xml:space="preserve" width="88.829mm" height="73.6141mm" version="1.1" style="shape-rendering:geometricPrecision; text-rendering:geometricPrecision; image-rendering:optimizeQuality; fill-rule:evenodd; clip-rule:evenodd"
viewBox="0 0 8899.23 7374.94"
 xmlns:xlink="http://www.w3.org/1999/xlink"
 xmlns:xodm="http://www.corel.com/coreldraw/odm/2003">
 <defs>
  <style type="text/css">
   <![CDATA[
    .str0 {stroke:#ad9771;stroke-width:67.85;stroke-miterlimit:22.9256}
    .fil0 {fill:#ad9771}
   ]]>
  </style>
 </defs>
 <g id="Layer_x0020_1">
  <metadata id="CorelCorpID_0Corel-Layer"/>
  <path class="fil0 str0" d="M4113.41 3743.85l-1074.08 367.83c-72.06,-47.88 -123.92,-135.1 -216.11,-183.02 -127.83,90.83 -340.76,295.11 -461.74,346.78 45.2,108.37 117.8,180.46 189.89,266.72 -109.8,189.73 -2475.83,1941.94 -2514.88,2046.01 -15.07,40.16 38.64,499.49 91.71,552.71 116.49,85.95 345.94,162.68 510.42,198.07 100.92,-60.11 224.28,-169.53 309.37,-238.18l943.7 -755.35c244.17,-196.86 1099.96,-847.95 1251.62,-1010.21 120.73,52.85 178.96,157.24 239.52,240.82 110.88,-46.58 396.98,-292.69 487.56,-372.6 -24.69,-72.73 -97.06,-149.65 -152.42,-210.22 41.99,-98.56 528.22,-887.86 588.65,-940.03l438.51 439.09c2350.03,1750.78 5325.92,-942.65 3614.19,-3453.02 -90.63,-132.89 -315.59,-355.84 -452.31,-464.18 -849.25,-673.04 -1916.33,-694.92 -2840.09,-197.72 -246.81,132.83 -506.71,394.42 -657.84,556.85 -177.53,190.81 -347.41,487.41 -451.76,788.06 -111.85,322.31 -163.29,694.66 -127.16,1072.94 52.5,550.11 183.2,628.66 283.25,948.64zm408.95 -190.68c195.63,-92.89 645.83,-508.69 804.28,-540.55 -45.29,92.57 -262.86,254.34 -361.84,336.81 -60.3,50.23 -126.3,110.88 -190.9,160.1 -75.25,57.34 -127.86,80.08 -176.16,180.39 194.13,341.14 703.87,712.57 1180.81,847.92 615.43,174.63 1211.91,16.05 1649.86,-261.28 368.15,-233.14 728.21,-640.92 874.54,-1147.7 495.76,-1716.89 -1283.5,-3340.47 -3041.16,-2367.58 -369.26,204.38 -752,626.62 -909.01,1113.93 -168.83,524.04 -128.86,1292.45 169.59,1677.96zm-2416.25 1583.99c75.14,114.04 198.54,228.78 257.32,362.64l-78.01 51.63c-94.1,-54.79 -143.03,-162.78 -215.54,-244.39 -65.43,-73.66 -16.53,-34.12 -92.98,-80.79 -53.58,81.36 -71.39,64.38 -118.57,134.34 71.42,88.71 213.24,235.94 251.62,339.98 -118.72,83.71 -128.34,13.86 -195.62,-76.96 -59.35,-80.08 -103.53,-134.94 -169.91,-186.22l-132.26 83.9c65.43,155.78 188.08,230.69 254.17,361.42 -61.95,65.59 -26.34,37.53 -101.24,68.62 -73.07,-90.47 -171.92,-245.5 -263.4,-322.27 -62.49,34.84 -99.83,69.45 -139.88,110.6 63.11,100.62 239.23,265.16 235.92,365.24 -156.64,89.26 -148.22,-135.03 -364.46,-279.23 -29.52,27.71 -86.04,76.48 -117.26,102.79 75.05,134.63 188.62,230.47 243.06,350.63 -36.93,51.76 -31.1,43 -75.18,73.2 -103.72,-90.16 -183.74,-226.07 -276.51,-330.47 -72.11,44.5 -99.89,59.47 -148.53,124.59 64.47,71.48 223.33,253.63 259.2,343.71l-70.24 52.21c-86.42,-38.67 -217.18,-229.48 -269.23,-319.03 -149.21,40.74 -395.09,319.67 -574.79,406.35l42.79 377.95c7.96,4.47 16.82,3.73 19.81,12.87 0.26,0.79 275.84,173.07 382.07,106.04l2408.52 -1929.68c-45.1,-75.33 -313.29,-437.97 -395.58,-491.13 -167.62,93.84 -399.2,303.99 -555.29,431.44zm2263.51 -1447.56c-31.16,-242.28 -487.63,-747.06 -192.82,-1801.91 145.36,-520.06 588.52,-1035.7 961.7,-1249.31 509.91,-291.93 1084.98,-449.5 1775.6,-257.36 1857.01,516.66 2203.05,3019.09 637.1,4018.31 -771.73,492.41 -1747.98,518.02 -2534,-44.34 -343.17,-245.54 -483.34,-518.79 -575.75,-559.16 -81.23,140.42 99.48,252.64 174.98,338.49 1158.82,1317.91 3456.19,848.46 3986.32,-922.39 365.88,-1222.17 -334.6,-2521.89 -1578.96,-2914.25 -1539.8,-485.53 -3240.13,779.11 -3020.51,2561.24 36.19,293.64 97.29,437.97 203.71,687.93 56.31,132.23 35.26,146.79 162.62,142.74zm2147.69 -1402.12c-170.9,191.64 -245.06,49.98 -376.78,377.67 -110.37,274.58 -229.26,169.85 -459.95,321.06 -192.97,126.53 -160.73,335.82 -323.8,431.83 -274.62,161.66 -254.43,55.68 -397.49,373.2 65.15,-65.52 68.59,-126.93 176.89,-188.42 91.97,-52.22 199.83,-67.5 290.89,-113.92 208.17,-106 142.68,-299.59 385.45,-396.12 248.73,-98.84 350.15,-67.78 462.28,-321 121.49,-274.3 86.39,-127.89 405.19,-401.72 684.16,286.12 1219.57,-740.06 840.91,-1059.3 -270.45,-227.99 -946.61,68.03 -1066.1,480.94 -78.2,270.1 40.98,318.39 62.5,495.76zm691.98 -878.5c-238.81,43.23 -446.63,156.35 -546.27,322.22 -148.13,246.65 -28.48,506.52 235.66,527.52 486.77,38.67 852.98,-947.88 310.61,-849.74zm-1503.52 -723.84c-569.89,152.11 -302.56,918.64 201.9,775.41 546.66,-155.22 284.91,-905.34 -201.9,-775.41zm-2578.02 3544.18c74.07,124.17 406.6,552.58 504.59,623.21 84.55,-95.54 581.42,-877.42 576.29,-953.26 -117.77,-51.76 -1068.45,319.7 -1080.87,330.05zm-524.42 73.75c37.3,114.61 314.19,435.3 394.77,533.86 74.67,91.26 132.71,164.4 205.63,252.76 49.4,59.89 57.5,69.51 95.44,120.09 18.79,25.05 20.1,29.5 47.21,60.59l70.21 70.08c84.99,-47.37 152.9,-102.51 213.87,-167.18 -66.86,-130.31 -769.04,-991.7 -807.23,-1017.83l-219.89 147.62zm2648.61 -2589.87c-427.95,169.37 -187.4,799.09 237.07,653.19 434.91,-149.49 195.65,-824.44 -237.07,-653.19zm2418.97 722.67c-288.1,118.91 -151.06,571.51 172.65,477.92 315.75,-91.27 166.39,-617.86 -172.65,-477.92zm-2004.35 -1546.18c-59.19,37.4 -75.37,6.46 -103.05,118.98 -52.12,211.68 154.33,365.88 352.29,273.15 282.65,-132.41 61.16,-588.01 -249.24,-392.13zm-140.26 1274.77c91.27,-321.67 -188.93,-379.36 -294.78,-246.52 -117.87,147.87 11.91,392.83 294.78,246.52zm1238.33 1708.54c-210.63,103.31 -52.38,387.36 140.83,287.72 171.12,-88.24 51.35,-381.94 -140.83,-287.72zm372.54 -210.05c19.04,-104.07 30.61,-59.98 -19.95,-140.8 -247.82,-110.41 -211.26,297.08 19.95,140.8z"/>
 </g>
</svg>
