<svg width="149" height="129" viewBox="0 0 149 129" fill="none" xmlns="http://www.w3.org/2000/svg">
<g clip-path="url(#clip0_29_5)">
<path fill-rule="evenodd" clip-rule="evenodd" d="M56.0522 0.744556C-4.26926 8.95291 -19.5835 85.4072 28.2542 117.398C71.6181 146.397 128.892 114.482 128.023 63.1387C127.957 59.2466 127.504 55.4878 126.826 51.779C125.702 45.6252 121.645 46.2579 119.836 47.6922C116.351 50.4562 120.654 57.1009 119.5 69.2181C114.573 120.946 48.2864 138.696 18.2272 96.0711C0.799072 71.3569 7.93064 39.7136 26.1381 23.4436C39.7341 11.2943 53.5891 6.8704 73.5604 9.37584C81.2075 10.3355 85.5914 -3.2742 56.0522 0.744934V0.744556Z" fill="#009846"/>
<path fill-rule="evenodd" clip-rule="evenodd" d="M75.3792 81.8137C77.2459 79.3325 94.6676 57.5443 97.413 55.0302C99.0121 53.5652 100.383 51.7197 101.972 50.0544C110.127 41.5116 123.55 30.1542 133.508 23.2505C137.466 20.5066 141.162 18.0967 145.237 15.5452C151.223 11.7978 147.154 4.69647 140.656 8.55347L128.713 16.0728C120.92 21.3895 113.765 26.6933 105.793 32.0511C93.8557 40.0739 83.301 48.2048 72.9561 57.5655C68.477 61.6186 66.407 64.911 63.4563 67.6553C63.3864 67.5793 63.2983 67.4716 63.2568 67.4175L62.7117 66.6828C62.6781 66.6306 62.3028 65.9643 62.2718 65.908C58.2542 58.6676 52.4534 51.3009 44.9749 47.4946C31.4839 40.6283 22.1186 54.5581 22.9176 60.3438C23.3621 63.5636 25.2307 64.2397 28.0543 65.1914C36.6875 68.1013 45.1619 74.2452 52.0709 79.6949C56.8168 83.4385 59.0706 86.5831 61.8353 88.9812C63.6313 90.5391 64.9507 92.7286 67.0287 93.2339L75.3792 81.8137Z" fill="#009846"/>
</g>
<defs>
<clipPath id="clip0_29_5">
<rect width="148.156" height="128.393" fill="white"/>
</clipPath>
</defs>
</svg>
